/* XPM */
static char * bitcoin64_xpm[] = {
"64 64 401 2",
"  	c None",
". 	c #F7931F",
"+ 	c #FE9720",
"@ 	c #FD9720",
"# 	c #FD971F",
"$ 	c #412A0F",
"% 	c #6D4414",
"& 	c #FC961F",
"* 	c #FF9A20",
"= 	c #251A0C",
"- 	c #000007",
"; 	c #CE7D1D",
"> 	c #F5921F",
", 	c #F2901F",
"' 	c #A26319",
") 	c #FB961F",
"! 	c #FF9C20",
"~ 	c #110E0B",
"{ 	c #010304",
"] 	c #1A140C",
"^ 	c #F19020",
"/ 	c #070809",
"( 	c #000208",
"_ 	c #FF9920",
": 	c #FF9D21",
"< 	c #000004",
"[ 	c #7E7E7F",
"} 	c #000000",
"| 	c #1A1B1C",
"1 	c #000001",
"2 	c #D17E1C",
"3 	c #CB7A1C",
"4 	c #ECECEC",
"5 	c #454646",
"6 	c #191B1C",
"7 	c #FFFFFF",
"8 	c #000203",
"9 	c #885315",
"0 	c #7E4D15",
"a 	c #0E1011",
"b 	c #363738",
"c 	c #747575",
"d 	c #494A4A",
"e 	c #301F0E",
"f 	c #FF9B20",
"g 	c #FF9E21",
"h 	c #13100B",
"i 	c #6E6F6F",
"j 	c #ABABAB",
"k 	c #A4A4A4",
"l 	c #000002",
"m 	c #DF861E",
"n 	c #F6931F",
"o 	c #B36D1A",
"p 	c #E7E7E7",
"q 	c #D3D2D2",
"r 	c #F0F0F0",
"s 	c #020304",
"t 	c #5E3A12",
"u 	c #1C150C",
"v 	c #5A5B5C",
"w 	c #868686",
"x 	c #131516",
"y 	c #838383",
"z 	c #E2881E",
"A 	c #F9941F",
"B 	c #855116",
"C 	c #F1F1F1",
"D 	c #2D2E2F",
"E 	c #6B6B6D",
"F 	c #19191A",
"G 	c #35230E",
"H 	c #F6921F",
"I 	c #D37F1D",
"J 	c #909090",
"K 	c #F5F5F5",
"L 	c #C0C0C0",
"M 	c #DBDBDB",
"N 	c #915817",
"O 	c #EC8E1F",
"P 	c #050708",
"Q 	c #4E4F4F",
"R 	c #8B8B8B",
"S 	c #040708",
"T 	c #919192",
"U 	c #CD7B1C",
"V 	c #EB8D1F",
"W 	c #0F0D0A",
"X 	c #303031",
"Y 	c #1B1D1D",
"Z 	c #6E6F70",
"` 	c #D7D7D7",
" .	c #535455",
"..	c #000307",
"+.	c #E48A1E",
"@.	c #08080A",
"#.	c #282828",
"$.	c #CCCDCD",
"%.	c #E5E5E5",
"&.	c #656565",
"*.	c #373838",
"=.	c #E4881E",
"-.	c #06080A",
";.	c #575858",
">.	c #393A3B",
",.	c #434445",
"'.	c #C8C8C8",
").	c #393A3A",
"!.	c #020508",
"~.	c #DB841D",
"{.	c #DF851E",
"].	c #2E2F2F",
"^.	c #F6F6F6",
"/.	c #B3B4B4",
"(.	c #CFD0CF",
"_.	c #444545",
":.	c #000006",
"<.	c #C9791C",
"[.	c #F8931F",
"}.	c #D27E1D",
"|.	c #38393A",
"1.	c #6F7071",
"2.	c #161819",
"3.	c #2E2F30",
"4.	c #6C6C6C",
"5.	c #E4E4E4",
"6.	c #3F4041",
"7.	c #545555",
"8.	c #AF691A",
"9.	c #F8941F",
"0.	c #C3751C",
"a.	c #000005",
"b.	c #454647",
"c.	c #FEFEFE",
"d.	c #DEDEDE",
"e.	c #C4C4C4",
"f.	c #9FA0A0",
"g.	c #B4B4B4",
"h.	c #E6E6E6",
"i.	c #9E9E9F",
"j.	c #2A2C2C",
"k.	c #807F80",
"l.	c #8C5617",
"m.	c #B9701A",
"n.	c #000003",
"o.	c #515252",
"p.	c #E9E9E9",
"q.	c #151516",
"r.	c #787A7A",
"s.	c #0A0B0C",
"t.	c #191A1B",
"u.	c #4F5050",
"v.	c #494A4B",
"w.	c #383A3A",
"x.	c #734814",
"y.	c #C1731B",
"z.	c #5B5C5C",
"A.	c #010102",
"B.	c #969595",
"C.	c #989898",
"D.	c #EAEAEA",
"E.	c #0C0D0E",
"F.	c #666868",
"G.	c #BDBDBE",
"H.	c #7E4E15",
"I.	c #FE971F",
"J.	c #D9821D",
"K.	c #58595A",
"L.	c #242626",
"M.	c #505152",
"N.	c #838485",
"O.	c #030505",
"P.	c #030406",
"Q.	c #717272",
"R.	c #CFCFCF",
"S.	c #C1C1C1",
"T.	c #B16B1A",
"U.	c #FC9620",
"V.	c #0E0B0A",
"W.	c #3B3C3D",
"X.	c #747474",
"Y.	c #F9F9F9",
"Z.	c #0A0C0D",
"`.	c #828282",
" +	c #737374",
".+	c #646565",
"++	c #0C0E0E",
"@+	c #48494A",
"#+	c #000309",
"$+	c #F2911F",
"%+	c #5B3912",
"&+	c #0D0E0F",
"*+	c #E6E6E5",
"=+	c #929393",
"-+	c #B3B3B3",
";+	c #FCFBFC",
">+	c #DFDFDF",
",+	c #C7C7C7",
"'+	c #010203",
")+	c #8A8A8B",
"!+	c #FCFCFC",
"~+	c #010202",
"{+	c #4D3010",
"]+	c #FF9820",
"^+	c #E0861E",
"/+	c #BBBBBC",
"(+	c #49494A",
"_+	c #1B1C1D",
":+	c #4B4C4C",
"<+	c #1C1D1E",
"[+	c #797A7A",
"}+	c #8E8E8E",
"|+	c #DA831E",
"1+	c #FA941F",
"2+	c #5F3B12",
"3+	c #B1B1B1",
"4+	c #A1A1A1",
"5+	c #707071",
"6+	c #333434",
"7+	c #030405",
"8+	c #623C12",
"9+	c #FB951F",
"0+	c #FF9C21",
"a+	c #A8A9A9",
"b+	c #6B6B6B",
"c+	c #121415",
"d+	c #DCDDDD",
"e+	c #F4F4F4",
"f+	c #ABABAC",
"g+	c #787878",
"h+	c #030609",
"i+	c #BB711B",
"j+	c #151618",
"k+	c #020305",
"l+	c #E2E1E2",
"m+	c #F8F9F9",
"n+	c #CDCDCE",
"o+	c #CF7D1D",
"p+	c #805015",
"q+	c #28292A",
"r+	c #FAFAFA",
"s+	c #CACACB",
"t+	c #7F8080",
"u+	c #282A2B",
"v+	c #FEFDFD",
"w+	c #D5D5D6",
"x+	c #D2D2D2",
"y+	c #D5D5D5",
"z+	c #955917",
"A+	c #FA951F",
"B+	c #623E12",
"C+	c #4B4B4C",
"D+	c #F8F8F8",
"E+	c #5F5F60",
"F+	c #484949",
"G+	c #C2C3C3",
"H+	c #FDFCFD",
"I+	c #724614",
"J+	c #5A3912",
"K+	c #ACACAB",
"L+	c #525353",
"M+	c #616161",
"N+	c #ADADAD",
"O+	c #272929",
"P+	c #6C4111",
"Q+	c #684112",
"R+	c #3A3B3B",
"S+	c #ACACAC",
"T+	c #656666",
"U+	c #F6F5F5",
"V+	c #D4D4D4",
"W+	c #F0F1F1",
"X+	c #C6C5C6",
"Y+	c #171919",
"Z+	c #704413",
"`+	c #8C5817",
" @	c #020405",
".@	c #C6C6C6",
"+@	c #626364",
"@@	c #4D4D4E",
"#@	c #D1D1D1",
"$@	c #BFBFBF",
"%@	c #F2F2F2",
"&@	c #905616",
"*@	c #D47F1D",
"=@	c #B9B9B9",
"-@	c #8A8A8A",
";@	c #8F9090",
">@	c #757575",
",@	c #C8C9C9",
"'@	c #D17E1D",
")@	c #15100B",
"!@	c #737475",
"~@	c #464747",
"{@	c #D1D2D2",
"]@	c #EFEFEF",
"^@	c #404142",
"/@	c #525252",
"(@	c #7C7D7E",
"_@	c #5D5E5E",
":@	c #110F0B",
"<@	c #945917",
"[@	c #D0D0D0",
"}@	c #C2C2C2",
"|@	c #101213",
"1@	c #7E7E7E",
"2@	c #AAABAC",
"3@	c #777777",
"4@	c #8D5616",
"5@	c #FF9B21",
"6@	c #120F0A",
"7@	c #505151",
"8@	c #050607",
"9@	c #EEEEEE",
"0@	c #080A0B",
"a@	c #B6B6B6",
"b@	c #9E9D9E",
"c@	c #2F3031",
"d@	c #17110B",
"e@	c #878787",
"f@	c #383A3B",
"g@	c #0A0B0B",
"h@	c #DCDCDC",
"i@	c #EDEDED",
"j@	c #9F9F9F",
"k@	c #888888",
"l@	c #626263",
"m@	c #985C18",
"n@	c #6D6D6D",
"o@	c #525354",
"p@	c #D9D9D9",
"q@	c #7C7C7C",
"r@	c #1E1F20",
"s@	c #343536",
"t@	c #B6B7B7",
"u@	c #222323",
"v@	c #9E9F9F",
"w@	c #585859",
"x@	c #B9701B",
"y@	c #A76519",
"z@	c #232323",
"A@	c #C5C5C5",
"B@	c #090B0B",
"C@	c #B5B6B6",
"D@	c #4E4F50",
"E@	c #FDFEFD",
"F@	c #000102",
"G@	c #6F6F70",
"H@	c #0B0D0E",
"I@	c #5F6060",
"J@	c #CDCDCD",
"K@	c #1E1F1F",
"L@	c #000107",
"M@	c #BF731B",
"N@	c #E78A1F",
"O@	c #3F290F",
"P@	c #1E2020",
"Q@	c #C7C8C8",
"R@	c #A4A5A5",
"S@	c #060809",
"T@	c #6A6A6A",
"U@	c #BEBFBF",
"V@	c #767676",
"W@	c #040607",
"X@	c #222425",
"Y@	c #F3F3F3",
"Z@	c #A2A2A2",
"`@	c #373738",
" #	c #2E200E",
".#	c #E58A1E",
"+#	c #D3801D",
"@#	c #683F13",
"##	c #130F0A",
"$#	c #0C0E0F",
"%#	c #363839",
"&#	c #151617",
"*#	c #030608",
"=#	c #000407",
"-#	c #000207",
";#	c #000304",
">#	c #373839",
",#	c #181919",
"'#	c #422B0F",
")#	c #F1901F",
"!#	c #C0741B",
"~#	c #965A17",
"{#	c #7C4C14",
"]#	c #714613",
"^#	c #724713",
"/#	c #7F4D15",
"(#	c #935917",
"_#	c #A96719",
":#	c #CF7C1C",
"<#	c #E78B1F",
"[#	c #B56F1A",
"}#	c #7D4D14",
"|#	c #704613",
"1#	c #7A4B14",
"2#	c #975B17",
"3#	c #C4771C",
"4#	c #FC9720",
"                                                                                                                                ",
"                                                    . . . . . . . . . . . .                                                     ",
"                                            . . . . . . . . . . . . . . . . . . . .                                             ",
"                                        . . . . . . . . . . . . . . . . . . . . . . . . .                                       ",
"                                    . . . . . . . . . . . . . . . . . . . . . . . . . . . . .                                   ",
"                                . . . . . . . . . . . . . . . . . . . . . . . . . . . . . . . . .                               ",
"                            . . . . . . . . . . . . . . . . . . . . . . . . . . . . . . . . . . . .                             ",
"                          . . . . . . . . . . . . . . . . . . . . . . . . . . . . . . . . . . . . . .                           ",
"                        . . . . . . . . . . . . . . . . . + @ . . . . . . . . . . . . . . . . . . . . . .                       ",
"                      . . . . . . . . . . . . . . . . . # $ % & . . . . . . . . . . . . . . . . . . . . . .                     ",
"                    . . . . . . . . . . . . . . . . . . * = - ; > , ' ) . . . . . . . . . . . . . . . . . . .                   ",
"                  . . . . . . . . . . . . . . . . . . . ! ~ { ] ^ / ( _ . . . . . . . . . . . . . . . . . . . .                 ",
"                . . . . . . . . . . . . . . . . . . . . : < [ } - | 1 2 . . . . . . . . . . . . . . . . . . . .                 ",
"              . . . . . . . . . . . . . . . . . . . . . 3 } 4 5 6 7 8 9 . . . . . . . . . . . . . . . . . . . . .               ",
"            . . . . . . . . . . . . . . . . . . . . . . 0 a 7 b c 7 d e f . . . . . . . . . . . . . . . . . . . . .             ",
"            . . . . . . . . . . . . . . . . . . . . . g h i 7 } j 7 k l m . . . . . . . . . . . . . . . . . . . . . .           ",
"          . . . . . . . . . . . . . . . . . . . . . n o } p q } r 7 7 s t & . . . . . . . . . . . . . . . . . . . . .           ",
"          . . . . . . . . . . . . . . . . . . . . . : u v 7 w x 7 7 7 y < z . . . . . . . . . . . . . . . . . . . . . .         ",
"        . . . . . . . . . . . . . . . . . . . . . A B } C 7 D E 7 7 7 7 F G * . . . . . . . . . . . . . . . . . . . . .         ",
"        . . . . . . . . . . . . . . . . . . . . H I 1 J 7 K } L 7 7 7 7 M } N A . . . . . . . . . . . . . . . . . . . . .       ",
"      . . . . . . . . . . . . . . . . . . . . H O P Q 7 7 R S 7 7 7 7 7 7 T } U n . . . . . . . . . . . . . . . . . . . .       ",
"      . . . . . . . . . . . . . . . . . . . H V W X 7 7 7 Y Z 7 7 ` 7 7 7 7  ...z H . . . . . . . . . . . . . . . . . . .       ",
"    . . . . . . . . . . . . . . . . . . . H +.@.#.7 7 7 $.} %.7 7 K &.7 7 7 7 *./ =.H . . . . . . . . . . . . . . . . . . .     ",
"    . . . . . . . . . . . . . . . . . . H +.-.#.7 7 7 7 ;.>.7 7 7 7 ,.'.7 7 7 7 ).!.~.H . . . . . . . . . . . . . . . . . .     ",
"    . . . . . . . . . . . . . . . . . H {.S ].7 7 7 7 ^.} /.7 7 7 7 (.1 7 7 M 7 7 _.:.<.[.. . . . . . . . . . . . . . . . .     ",
"    . . . . . . . . . . . . . . . . . }...|.7 7 7 7 7 1.2.7 7 7 7 7 7 3.4.7 5.6.7 7 7.1 8.& . . . . . . . . . . . . . . . . .   ",
"  . . . . . . . . . . . . . . . . 9.0.a.b.7 c.d.e.7 7 } f.7 7 7 7 7 7 g.} h.7 i.j.7 7 k.} l._ . . . . . . . . . . . . . . . .   ",
"  . . . . . . . . . . . . . . . 9.m.n.o.7 c.p.q.7 7 r.s.7 7 7 7 7 7 7 7 t.u.7 7 v.w.7 7 /.} x.* . . . . . . . . . . . . . . .   ",
"  . . . . . . . . . . . . . . . y.n.z.7 7 K A.e.7 7 } B.7 7 7 7 7 7 7 7 C.} D.7 7 E.F.7 7 G.} H.I.. . . . . . . . . . . . . .   ",
"  . . . . . . . . . . . . . H J.a.K.7 7 7 L.M.7 7 N.O.7 7 7 7 7 7 7 7 7 7 P.Q.7 c.R.} S.c.7 C.} T.n . . . . . . . . . . . . .   ",
"  . . . . . . . . . . . . . U.V.W.7 7 7 X.} Y.7 7 Z.`.7 7 7 7 7 7 7 7 7 7  +P 7 7 7 .+++7 7 7 @+#+$+. . . . . . . . . . . . .   ",
"  . . . . . . . . . . . . & %+&+7 7 7 *+} =+7 7 -+} ;+7 7 7 7 7 7 7 7 7 7 >+} ,+7 7 7 '+)+7 7 !+~+{+]+. . . . . . . . . . . .   ",
"  . . . . . . . . . . . . ^+} /+c.7 7 (+_+7 7 7 7.:+7 7 7 7 7 7 7 7 7 7 7 7 <+[+7 7 7 }+P 7 7 7 R < |+. . . . . . . . . . . .   ",
"  . . . . . . . . . . . 1+2+X 7 7 7 >+} 3+7 7 7 } 4+7 7 7 7 7 7 7 7 7 7 7 7 5+6+7 7 7 7 } k 7 7 7 7+8+9+. . . . . . . . . . .   ",
"  . . . . . . . . . . . 0+n.a+7 7 7 b+c+7 7 7 d+} e+7 7 7 7 7 7 7 7 7 7 7 7 f+} 7 7 7 7 _.6.7 7 7 g+h+f . . . . . . . . . . .   ",
"  . . . . . . . . . . . i+} 7 7 7 7 j+[+7 7 7 4+k+7 7 7 7 7 7 7 7 7 7 7 7 7 l+} m+7 7 7 }+} 7 7 7 n+} o+. . . . . . . . . . .   ",
"  . . . . . . . . . . . p+q+7 7 7 r+} s+7 7 7 t+u+7 7 7 7 7 7 7 7 7 7 7 7 7 v+} w+7 7 7 x+} y+7 7 7 } z+. . . . . . . . . . .   ",
"  . . . . . . . . . . A+B+C+7 7 7 e.} D+7 7 7 E+F+7 7 7 7 7 7 7 7 7 7 7 7 7 7 } G+7 7 7 H+} -+7 7 7 <+I+9.. . . . . . . . . .   ",
"    . . . . . . . . . A+J+M.7 7 7 K+} 7 7 7 7 L+M+7 7 7 7 7 7 7 7 7 7 7 7 7 7 } S.7 7 7 7 } N+7 7 7 O+P+9.. . . . . . . . . .   ",
"    . . . . . . . . . A Q+R+7 7 7 S+} 7 7 7 7 L+T+7 7 7 7 7 7 7 7 7 7 7 7 7 U+} V+7 7 7 W+} X+7 7 7 Y+Z+9.. . . . . . . . .     ",
"    . . . . . . . . . H `+ @7 7 7 .@} Y.7 7 7 +@@@7 7 7 7 7 7 7 7 7 7 7 7 7 #@} r+7 7 7 $@} %@7 7 7 } &@. . . . . . . . . .     ",
"    . . . . . . . . . . *@} >+7 7 7 } =@7 7 7 -@<+7 7 7 7 7 7 7 7 7 7 7 7 7 ;@P 7 7 7 7 >@| 7 7 7 ,@} '@. . . . . . . . . .     ",
"      . . . . . . . . . g )@!@7 7 7 ~@6.7 7 7 {@} ]@7 7 7 7 7 7 7 7 7 7 7 7 ^@/@7 7 7 7 P (@7 7 7 _@:@f . . . . . . . . . .     ",
"      . . . . . . . . . . <@} 7 7 7 [@} }@7 7 7 |@1@7 7 7 7 7 7 7 7 7 7 7 Y.} 2@7 7 7 3@} !+7 7 D.} 4@. . . . . . . . . .       ",
"        . . . . . . . . . 5@6@7@7 7 7 .+8@9@c.7 )+} 7 7 7 7 7 7 7 7 7 7 7 g+0@7 7 7 a@} b@7 7 7 c@d@* . . . . . . . . . .       ",
"        . . . . . . . . . n 3 } e@7 7 7 f@g@h@7 7 |@u.7 7 7 7 7 7 7 7 7 i@} j@7 7 k@} i 7 7 7 l@< J.H . . . . . . . . .         ",
"        . . . . . . . . . . A+m@} n@7 7 7 o@} 3@7 p@} q@7 7 7 7 7 7 7 7 r@s@7 t@u@} v@7 7 7 w@} x@[.. . . . . . . . . .         ",
"          . . . . . . . . . . I.y@a.z@A@7 7 S+B@} X.C@} D@E@7 7 7 7 i@r@F@G@H@} I@e+7 7 J@K@L@M@A . . . . . . . . . .           ",
"            . . . . . . . . . . . N@O@} P@`.Q@7 R@6+} 0@S@} T@g.U@V@} S@W@X@)+7 7 Y@Z@`@}  #.#. . . . . . . . . . . .           ",
"            . . . . . . . . . . . . * +#@###} } $#%#&#P S *#=#} } :.-#*#;#>#c@,#P } < '#x@f n . . . . . . . . . . .             ",
"              . . . . . . . . . . . . . 1+: )#!#~#{#]#^#/#(#_#:#V <#[#<@}#|#% 1#2#3#4#]+. . . . . . . . . . . . .               ",
"                . . . . . . . . . . . . . . . . . 9.9.9.[.. n . . . . . [.9.9.9.. . . . . . . . . . . . . . . . .               ",
"                  . . . . . . . . . . . . . . . . . . . . . . . . . . . . . . . . . . . . . . . . . . . . . . .                 ",
"                  . . . . . . . . . . . . . . . . . . . . . . . . . . . . . . . . . . . . . . . . . . . . . .                   ",
"                    . . . . . . . . . . . . . . . . . . . . . . . . . . . . . . . . . . . . . . . . . . . .                     ",
"                        . . . . . . . . . . . . . . . . . . . . . . . . . . . . . . . . . . . . . . . . .                       ",
"                          . . . . . . . . . . . . . . . . . . . . . . . . . . . . . . . . . . . . . . .                         ",
"                            . . . . . . . . . . . . . . . . . . . . . . . . . . . . . . . . . . . .                             ",
"                                . . . . . . . . . . . . . . . . . . . . . . . . . . . . . . . . .                               ",
"                                  . . . . . . . . . . . . . . . . . . . . . . . . . . . . . .                                   ",
"                                      . . . . . . . . . . . . . . . . . . . . . . . . . .                                       ",
"                                            . . . . . . . . . . . . . . . . . . . . .                                           ",
"                                                  . . . . . . . . . . . . . .                                                   ",
"                                                                                                                                "};
