/* XPM */
static char * bitcoin32_xpm[] = {
"32 32 195 2",
"  	c None",
". 	c #F7931F",
"+ 	c #CC7A1B",
"@ 	c #DE851D",
"# 	c #FA951F",
"$ 	c #F6921F",
"% 	c #905A17",
"& 	c #271807",
"* 	c #CA791B",
"= 	c #A46318",
"- 	c #F6931F",
"; 	c #F8931F",
"> 	c #673A04",
", 	c #7D7D7D",
"' 	c #494D54",
") 	c #482801",
"! 	c #FB951F",
"~ 	c #FF9E21",
"{ 	c #261F17",
"] 	c #949494",
"^ 	c #D8D8D8",
"/ 	c #2D3034",
"( 	c #FF9D21",
"_ 	c #B87019",
": 	c #8F9295",
"< 	c #454646",
"[ 	c #FFFFFF",
"} 	c #A1A3A4",
"| 	c #8F5411",
"1 	c #FF9921",
"2 	c #231C15",
"3 	c #3E3F3F",
"4 	c #2A2D30",
"5 	c #F39220",
"6 	c #FF9A21",
"7 	c #2B1A06",
"8 	c #E4E3E3",
"9 	c #AAAAAA",
"0 	c #999A9B",
"a 	c #F2F2F2",
"b 	c #F5F5F5",
"c 	c #26190A",
"d 	c #FF9A20",
"e 	c #251604",
"f 	c #DBDBDA",
"g 	c #3E3F40",
"h 	c #8C8D8D",
"i 	c #E0DFDF",
"j 	c #281908",
"k 	c #FF9920",
"l 	c #FE9820",
"m 	c #251707",
"n 	c #DEDEDD",
"o 	c #E8E8E8",
"p 	c #616262",
"q 	c #6C6D6D",
"r 	c #ECECEC",
"s 	c #B0B0B1",
"t 	c #F0F0EF",
"u 	c #24170A",
"v 	c #F89420",
"w 	c #F89520",
"x 	c #22160B",
"y 	c #E3E3E2",
"z 	c #B0B0B0",
"A 	c #F9F9F9",
"B 	c #4A4B4B",
"C 	c #F9FAFA",
"D 	c #393A3A",
"E 	c #FDFDFD",
"F 	c #4D4F4F",
"G 	c #FDFCFC",
"H 	c #2E2820",
"I 	c #EC8E20",
"J 	c #FF9820",
"K 	c #24180D",
"L 	c #D3D3D3",
"M 	c #757576",
"N 	c #F2F3F3",
"O 	c #535353",
"P 	c #565657",
"Q 	c #E4E4E4",
"R 	c #BEBEBE",
"S 	c #818282",
"T 	c #231E19",
"U 	c #FE971F",
"V 	c #442603",
"W 	c #E0E0E0",
"X 	c #1F1F1F",
"Y 	c #5D5E5E",
"Z 	c #F0EFF0",
"` 	c #E2E2E2",
" .	c #646565",
"..	c #434444",
"+.	c #F3F3F3",
"@.	c #371D00",
"#.	c #D8801C",
"$.	c #6E747A",
"%.	c #838383",
"&.	c #B9BABA",
"*.	c #363737",
"=.	c #575758",
"-.	c #545960",
";.	c #D8811D",
">.	c #F8941F",
",.	c #5D3300",
"'.	c #FBFBFB",
").	c #252728",
"!.	c #EBEBEB",
"~.	c #737373",
"{.	c #4F4F4F",
"].	c #292A2A",
"^.	c #DEDDDD",
"/.	c #683C07",
"(.	c #40301B",
"_.	c #FEFEFE",
":.	c #626263",
"<.	c #BABABA",
"[.	c #99999A",
"}.	c #747373",
"|.	c #F1F1F1",
"1.	c #686868",
"2.	c #301A02",
"3.	c #3E3222",
"4.	c #DEDEDE",
"5.	c #757575",
"6.	c #A6A7A7",
"7.	c #B4B4B4",
"8.	c #727171",
"9.	c #F0F0F0",
"0.	c #727272",
"a.	c #E6E6E6",
"b.	c #301F0C",
"c.	c #422200",
"d.	c #5D5D5D",
"e.	c #BDBDBD",
"f.	c #979797",
"g.	c #434445",
"h.	c #3D3D3D",
"i.	c #432200",
"j.	c #FB961F",
"k.	c #A96617",
"l.	c #9D9FA1",
"m.	c #3A3B3B",
"n.	c #4B4C4C",
"o.	c #353636",
"p.	c #494A4A",
"q.	c #919395",
"r.	c #A66517",
"s.	c #2B1D0C",
"t.	c #F6F5F5",
"u.	c #2B2C2D",
"v.	c #515152",
"w.	c #989898",
"x.	c #ADAEAE",
"y.	c #262727",
"z.	c #F6F6F6",
"A.	c #281706",
"B.	c #FF9C20",
"C.	c #F19020",
"D.	c #231A11",
"E.	c #C3C4C4",
"F.	c #2C2C2C",
"G.	c #A0A0A0",
"H.	c #3E3F3E",
"I.	c #E4E5E5",
"J.	c #D3D3D4",
"K.	c #222324",
"L.	c #696A6A",
"M.	c #444545",
"N.	c #C6C6C6",
"O.	c #24190D",
"P.	c #7B480B",
"Q.	c #2B2622",
"R.	c #71777D",
"S.	c #43494D",
"T.	c #000002",
"U.	c #000000",
"V.	c #383E44",
"W.	c #3C424B",
"X.	c #0C1115",
"Y.	c #808387",
"Z.	c #7A7F84",
"`.	c #2A2C2F",
" +	c #6E4109",
".+	c #F69320",
"++	c #C67519",
"@+	c #BA7119",
"#+	c #C8771B",
"$+	c #E5891E",
"%+	c #D7811D",
"&+	c #BC7118",
"*+	c #BA6F18",
"=+	c #DC841E",
"-+	c #FF9F21",
"                            . . . .                             ",
"                    . . . . . . . . . . . .                     ",
"                . . . . . . . . . . . . . . . .                 ",
"              . . . . . . . . . . . . . . . . . .               ",
"            . . . . . . . . + @ . # . . . . . . . . .           ",
"          . . . . . . . . $ % & * = - . . . . . . . . .         ",
"        . . . . . . . . . ; > , ' ) ! . . . . . . . . .         ",
"      . . . . . . . . . . ~ { ] ^ / ( . . . . . . . . . .       ",
"    . . . . . . . . . . $ _ : < [ } | . . . . . . . . . . .     ",
"    . . . . . . . . . . 1 2 [ 3 [ [ 4 5 . . . . . . . . . .     ",
"  . . . . . . . . . . 6 7 8 9 0 a [ b c 6 . . . . . . . . . .   ",
"  . . . . . . . . . d e f [ g [ [ h [ i j k . . . . . . . . .   ",
"  . . . . . . . . l m n [ o p [ [ q r s t u v $ . . . . . . .   ",
"  . . . . . . . w x y z A B C [ [ [ D E F G H I $ . . . . . .   ",
"  . . . . . . J K o L M N O [ [ [ [ P Q R S [ T v . . . . . . . ",
". . . . . . U V W [ X [ Y Z [ [ [ [ `  .[ ..+.` @.J . . . . . . ",
". . . . . . #.$.[ %.&.[ *.[ [ [ [ [ [ *.[ b =.[ -.;.. . . . . . ",
"  . . . . >.,.'.[ ).[ !.~.[ [ [ [ [ [ {.[ [ ].[ ^./.; . . . . . ",
"  . . . . J (.[ _.:.[ <.[.[ [ [ [ [ [ }.|.[ 1.r [ 2.J . . . .   ",
"  . . . . k 3.[ 4.5.[ 6.7.[ [ [ [ [ [ 8.9.[ 0.a.[ b.k . . . .   ",
"  . . . . ! c.[ [ d.[ e.f.[ [ [ [ [ [ g.[ [ h.[ [ i.j.. . . .   ",
"  . . . . . k.l.[ m.[ [ n.[ [ [ [ [ [ o.[ 9.p.[ q.r.. . . . .   ",
"    . . . . ( s.t.o u.[ v.a._.[ [ [ w.x.b y.z.r A.B.. . . .     ",
"    . . . . . C.D.E.|.F.G.H.I.[ [ J.K.L.M.[ N.O.v . . . . .     ",
"      . . . . - 6 P.Q.R.S.T.U.V.W.U.X.Y.Z.`. +d . . . . .       ",
"        . . . . . . ~ .+++@+#+$+6 %+&+*+=+-+; . . . . .         ",
"        . . . . . . . . . . . . . . . . . . . . . . . .         ",
"          . . . . . . . . . . . . . . . . . . . . . .           ",
"              . . . . . . . . . . . . . . . . . .               ",
"                . . . . . . . . . . . . . . . .                 ",
"                    . . . . . . . . . . . .                     ",
"                            . . . .                             "};
