/* XPM */
static char * bitcoin16_xpm[] = {
"16 16 80 1",
" 	c None",
".	c #F7931F",
"+	c #F9941F",
"@	c #FB951F",
"#	c #895211",
"$	c #E3871C",
"%	c #FF9F22",
"&	c #5D544B",
"*	c #4C4F54",
"=	c #FFA021",
"-	c #F6921F",
";	c #AC6109",
">	c #808488",
",	c #FFFFFF",
"'	c #9D5B0E",
")	c #CA740D",
"!	c #C1C3C5",
"~	c #949495",
"{	c #DEDEDE",
"]	c #C4C6CA",
"^	c #CA730D",
"/	c #C6710E",
"(	c #A3A7AA",
"_	c #CCCCCC",
":	c #D8D9D9",
"<	c #DCDCDC",
"[	c #B3B3B4",
"}	c #94989C",
"|	c #C27112",
"1	c #D1770E",
"2	c #C4C8CE",
"3	c #8A898A",
"4	c #9F9F9F",
"5	c #969797",
"6	c #929393",
"7	c #CCD2D9",
"8	c #CC740E",
"9	c #FD9720",
"0	c #9E8262",
"a	c #A0A0A0",
"b	c #9D9E9E",
"c	c #939393",
"d	c #949494",
"e	c #917453",
"f	c #FC9620",
"g	c #FF9C1F",
"h	c #939392",
"i	c #A4A4A4",
"j	c #DEDFDE",
"k	c #D5D5D5",
"l	c #B4B4B4",
"m	c #A3A3A3",
"n	c #8B8784",
"o	c #FF9E21",
"p	c #FF9920",
"q	c #97836D",
"r	c #969796",
"s	c #B1B1B1",
"t	c #8F9090",
"u	c #929292",
"v	c #94806A",
"w	c #C57210",
"x	c #B6BCC4",
"y	c #8B8B8B",
"z	c #828282",
"A	c #6A6B6B",
"B	c #919190",
"C	c #B8BEC4",
"D	c #C7720E",
"E	c #F6931F",
"F	c #E28415",
"G	c #A17237",
"H	c #65421A",
"I	c #694011",
"J	c #784A15",
"K	c #7C5B34",
"L	c #996F39",
"M	c #DF8113",
"N	c #F7921F",
"O	c #F8931F",
"      ....      ",
"    ...+....    ",
"   ...@#$+....  ",
"  ....%&*=....  ",
" ....-;>,'-.... ",
" ...-)!~{]^-... ",
"...-/(_:<[}|-...",
"...1234,,5678...",
"..90a,b,,c,def..",
"..ghijk,,l,mno..",
" .pqr,s,,t,uvp. ",
" .-wxyz,,ABCDE. ",
"  .-FGHIJKLM-.  ",
"  ...N@+O@....  ",
"    ........    ",
"      ....      "};
